<svg xmlns="http://www.w3.org/2000/svg" viewBox="0 0 64 64">
  <defs>
    <linearGradient id="bg" x1="10" y1="8" x2="54" y2="58" gradientUnits="userSpaceOnUse">
      <stop stop-color="#0f766e"/>
      <stop offset="1" stop-color="#0f172a"/>
    </linearGradient>
    <linearGradient id="left" x1="12" y1="19" x2="34" y2="49" gradientUnits="userSpaceOnUse">
      <stop stop-color="#67e8f9"/>
      <stop offset="1" stop-color="#14b8a6"/>
    </linearGradient>
    <linearGradient id="right" x1="52" y1="19" x2="30" y2="49" gradientUnits="userSpaceOnUse">
      <stop stop-color="#bbf7d0"/>
      <stop offset="1" stop-color="#22c55e"/>
    </linearGradient>
  </defs>
  <rect x="3" y="3" width="58" height="58" rx="16" fill="url(#bg)"/>
  <path d="M13 18.5c9-8.3 28-8.3 38 0" stroke="#f8fafc" stroke-width="4" stroke-linecap="round"/>
  <path d="M10.5 42.5c7.5 5 15.4 2.2 21.5 10.5 6.1-8.3 14-5.5 21.5-10.5" stroke="#f8fafc" stroke-width="4" stroke-linecap="round" stroke-linejoin="round"/>
  <circle cx="21.5" cy="25.5" r="4.8" fill="#a5f3fc"/>
  <circle cx="42.5" cy="25.5" r="4.8" fill="#86efac"/>
  <path d="M28.6 21.4c-1.6 8.8-9.2 10.6-13 17.5 6-1.3 9.4 1.9 13.2 7.9 4-7.6 8.7-11.2 3.2-23.8-.8-1.9-3-2.5-3.4-1.6Z" fill="url(#left)"/>
  <path d="M35.4 21.4c1.6 8.8 9.2 10.6 13 17.5-6-1.3-9.4 1.9-13.2 7.9-4-7.6-8.7-11.2-3.2-23.8.8-1.9 3-2.5 3.4-1.6Z" fill="url(#right)"/>
  <path d="M24.5 36h15v4.4c0 4.1-3.4 7.6-7.5 7.6s-7.5-3.5-7.5-7.6V36Z" fill="#f8fafc"/>
  <path d="M24.7 39h-4.2v2.4c0 3.4 2.2 6.3 5.4 7.1M39.3 39h4.2v2.4c0 3.4-2.2 6.3-5.4 7.1" stroke="#f8fafc" stroke-width="2.8" stroke-linecap="round" stroke-linejoin="round"/>
  <path d="M32 38.8l1.3 2.7 3 .4-2.1 2.1.5 3-2.7-1.4-2.7 1.4.5-3-2.1-2.1 3-.4 1.3-2.7Z" fill="#facc15"/>
  <path d="M32 48v4M27.5 54h9" stroke="#f8fafc" stroke-width="3" stroke-linecap="round"/>
</svg>
